<svg width="402" height="87" viewBox="0 0 402 87" fill="none" xmlns="http://www.w3.org/2000/svg">
    <path d="M209.924 43.6331V49.3171L215.586 43.6075H219.411L213.059 50.0949L219.613 58.2593H215.991L210.988 51.8537L209.924 52.8619V58.2593H206.877V43.6331H209.924ZM227.948 55.7499C230.159 55.7499 232.403 54.1908 232.403 50.9615C232.403 47.7306 230.159 46.2328 227.948 46.2328C225.791 46.2328 223.463 47.7306 223.463 50.9615C223.463 54.1908 225.791 55.7499 227.948 55.7499ZM227.948 58.5749C223.577 58.5749 220.327 55.2006 220.327 50.9615C220.327 46.6917 223.577 43.3755 227.948 43.3755C232.347 43.3755 235.539 46.6917 235.539 50.9615C235.539 55.2006 232.347 58.5749 227.948 58.5749ZM251.458 48.4215L247.694 55.7209H245.449L241.856 48.7388V58.2593H238.865V43.6314H242.317L246.602 51.881L250.887 43.6314H254.449V58.2593H251.458V48.4215ZM270.544 43.6331V58.2593H267.439V46.3454H261.6V58.2593H258.524V43.6331H270.544ZM277.67 51.5091V55.6339H280.804C282.068 55.6339 283.362 54.9686 283.362 53.5869C283.362 52.1437 282.068 51.5347 280.804 51.5091H277.67ZM277.67 48.9111H280.804C283.652 48.9111 286.353 50.0642 286.353 53.5869C286.353 56.9867 283.652 58.2576 280.804 58.2576H274.649V43.6331H277.67V48.9111ZM302.133 55.6049C304.896 55.6049 306.448 53.5869 306.448 50.9905C306.448 48.4215 304.719 46.3437 302.133 46.3437C299.662 46.3437 297.822 48.3072 297.822 50.9905C297.822 53.5579 299.404 55.6049 302.133 55.6049ZM292.791 58.2593H289.798V43.6314H292.791V49.5474H294.919C295.668 46.1731 298.28 43.4608 302.133 43.4608C306.333 43.4608 309.494 46.8043 309.494 50.9905C309.494 53.5255 308.346 55.9205 306.101 57.391C304.893 58.0866 303.526 58.4546 302.133 58.4589C298.538 58.4589 295.576 56.0638 294.919 52.345H292.791V58.2593ZM310.839 43.6331H322.71V46.2874H318.314V58.2593H315.206V46.2874H310.839V43.6331ZM335.762 49.8356C335.675 47.2683 333.633 46.0554 331.592 46.0554C329.407 46.0554 327.481 47.3826 327.421 49.8356H335.762ZM335.789 53.7865L338.003 55.2024C336.308 57.4797 334.094 58.4879 331.678 58.4879C326.704 58.4879 324.202 54.6821 324.231 50.9035C324.231 47.1233 326.818 43.3175 331.652 43.2902C336.536 43.2578 339.528 47.5822 338.666 52.2307H327.367C327.712 54.0458 329.234 55.6902 331.678 55.6902C332.975 55.6902 334.584 55.4616 335.789 53.7865ZM352.547 50.9325C352.547 47.4406 350.36 46.2584 348.148 46.2311C347.226 46.2311 346.162 46.545 345.446 47.4696V54.1345C346.135 55.4309 347.372 55.7192 348.522 55.7192C351.054 55.7192 352.547 53.5562 352.547 50.9325ZM348.748 58.4879C347.573 58.4606 346.364 58.2576 345.386 57.072V63.8256H342.397V43.6331H344.956L345.414 45.0455C346.335 43.9776 347.542 43.5188 349.01 43.5188C352.317 43.5188 355.592 46.0281 355.592 51.0178C355.592 54.9686 352.69 58.5459 348.748 58.4879ZM362.142 43.6331V49.6361H367.982V43.6331H371.086V58.2593H367.982V52.2597H362.142V58.2593H359.07V43.6331H362.142ZM383.962 54.3648V51.8827C383.212 51.2498 382.149 50.9325 381.056 50.9035C379.104 50.8438 377.147 51.7411 377.147 53.3822C377.147 55.0266 378.271 55.7772 380.687 55.7772C381.804 55.7772 383.187 55.2006 383.962 54.3648ZM384.596 58.2576L384.078 56.4988C383.013 58.1143 381.605 58.4606 379.936 58.4606C372.03 58.4606 372.03 48.1332 381 48.4488C381.922 48.4778 383.301 48.7115 383.933 49.3171C383.933 46.69 382.294 45.8251 380.452 45.8541C379.027 45.8649 377.634 46.2756 376.429 47.0397L375.191 45.1632C379.277 41.7873 387.006 42.6522 387.006 49.3734V58.2576H384.596ZM398.706 49.9534V46.3437H395.573C394.335 46.3761 393.097 46.7787 393.097 48.1315C393.097 49.4586 394.335 49.9534 395.573 49.9534H398.706ZM401.725 58.2593H398.706V52.49H397.098L393.243 58.2593H389.795L393.933 52.287C391.866 51.9424 390.135 50.6715 390.135 48.1315C390.135 44.8749 392.699 43.6331 395.573 43.6331H401.725V58.2593ZM223.235 82.9281V70.9562H226.455V85.5824H206.933V70.9562H210.152V82.9281H215.217V70.9562H218.232V82.9281H223.235ZM233.607 70.9562V76.6402L239.27 70.9306H243.097L236.745 77.4198L243.296 85.5824H239.674L234.672 79.1768L233.607 80.1884V85.5824H230.564V70.9562H233.607ZM251.632 83.0748C253.842 83.0748 256.084 81.5156 256.084 78.2846C256.084 75.0537 253.842 73.5542 251.632 73.5542C249.472 73.5542 247.144 75.0537 247.144 78.2846C247.144 81.5156 249.472 83.0748 251.632 83.0748ZM251.632 85.8997C247.258 85.8997 244.011 82.5255 244.011 78.2846C244.011 74.0165 247.258 70.6969 251.632 70.6969C256.031 70.6969 259.221 74.0165 259.221 78.2846C259.221 82.5255 256.031 85.8997 251.632 85.8997ZM262.176 85.9577L260.625 83.9089C263.385 82.4095 263.326 80.3914 263.326 78.3989V70.9579H274.079V85.5807H270.974V73.5832H266.376V78.9192C266.376 81.4883 265.972 83.6479 262.176 85.9577ZM286.985 81.6879V79.2058C286.237 78.5746 285.173 78.2539 284.081 78.2266C282.126 78.1686 280.168 79.0659 280.168 80.707C280.168 82.3515 281.292 83.1021 283.707 83.1021C284.826 83.1021 286.208 82.5255 286.985 81.6879ZM287.62 85.5824L287.099 83.8236C286.035 85.4374 284.627 85.7854 282.959 85.7854C275.052 85.7854 275.052 75.4563 284.023 75.7736C284.943 75.8026 286.326 76.0346 286.955 76.6385C286.955 74.0148 285.316 73.1499 283.477 73.1789C282.052 73.1892 280.658 73.5999 279.454 74.3645L278.213 72.4881C282.299 69.1121 290.031 69.977 290.031 76.6982V85.5824H287.62ZM27.0401 48.4726C30.5481 50.3645 32.3301 52.6657 32.3301 60.0095V85.6302H42.3405V57.6691C42.3405 45.7688 35.731 38.0105 24.6595 36.9204C20.8829 36.5775 17.7218 36.888 14.4009 37.9422C13.2858 38.2862 12.216 38.7633 11.2143 39.3632L10.5715 39.7488V10.6345L10.1583 10.8494C9.30471 11.2998 7.73352 12.1356 5.27811 13.4918C1.33483 15.7248 0 18.4133 0 24.1485V85.6302H10.5715V50.0199L10.762 49.8936C15.7034 46.6508 22.5476 46.0537 27.0401 48.4726ZM129.851 58.2729L129.888 57.8175C130.484 50.1359 137.413 46.6354 143.599 46.6354C149.807 46.6354 156.793 50.1325 157.473 57.8106L157.515 58.2729H129.851ZM161.618 45.1564C157.304 39.9791 151.025 37.1268 143.934 37.1268H143.781C127.872 37.2206 119.545 49.7128 119.545 61.9986C119.492 68.9245 122.036 75.4955 126.523 80.0315C130.897 84.4497 136.898 86.7851 143.878 86.7851C152.162 86.7851 159.307 83.0748 164.535 76.0551L164.716 75.8128L157.083 70.9391L156.929 71.1541C153.07 76.5003 147.928 77.1861 143.878 77.1861C136.124 77.1861 131.177 71.9592 129.863 67.1094L129.715 66.5721H166.677L166.72 66.3401C168.175 58.5135 166.313 50.7909 161.618 45.1564ZM64.5344 33.4796C63.6774 33.9317 62.1062 34.7642 59.6508 36.1238C55.7075 38.3551 54.3761 41.0452 54.3761 46.777V85.6302H64.9493V33.263L64.5344 33.4796ZM99.5988 85.4391V24.3344C99.5988 18.6026 100.934 15.9125 104.887 13.6761C106.501 12.7792 108.124 11.9006 109.757 11.0405L110.174 10.8238V85.4391H99.5988ZM76.9883 85.4391V24.3344C76.9883 18.6026 78.3231 15.9125 82.2732 13.6761C83.887 12.78 85.5105 11.9014 87.1432 11.0405L87.5598 10.8238V85.4391H76.9883ZM177.16 85.4391V24.3344C177.16 18.6026 178.492 15.9125 182.445 13.6761C184.059 12.7796 185.682 11.901 187.315 11.0405L187.732 10.8238V85.4391H177.16ZM58.3619 29.8291C59.6372 29.0273 60.8377 28.4336 61.8052 27.9594C63.3543 27.1969 64.6824 26.5384 65.672 25.462C70.5301 20.1857 69.2956 12.0828 69.2412 11.7399L69.1035 10.904L68.7107 11.6546C68.6919 11.6938 66.5001 15.8357 62.6623 18.7101C62.1362 19.0916 61.6021 19.4618 61.0605 19.8206C59.9042 20.6036 58.4622 21.5743 56.7261 22.939C51.0178 27.4289 50.9531 34.8614 50.9531 35.1753V35.9754L51.4565 35.3527C51.4616 35.3408 53.4205 32.944 58.3619 29.8291ZM57.1512 14.7985C59.7681 13.1506 61.6267 11.8695 62.834 10.5645C66.6174 6.45506 65.6074 1.02182 65.5598 0.793235L65.405 0L65.0326 0.713059C65.0207 0.738647 63.3594 3.90476 60.3888 6.12582C60.0708 6.36635 59.6831 6.62906 59.2308 6.93441C58.3143 7.55365 57.1597 8.33323 55.8198 9.38576C51.4004 12.8606 51.3459 18.618 51.3459 18.8602V19.662L51.8493 19.0376C51.8578 19.0257 53.315 17.2158 57.1512 14.7985Z" fill="white"/>
</svg>
